<mxfile host="65bd71144e">
    <diagram id="xU2TrHQqQJuq5vgoqM9-" name="Page-1">
        <mxGraphModel dx="1448" dy="887" grid="1" gridSize="10" guides="1" tooltips="1" connect="1" arrows="1" fold="1" page="1" pageScale="1" pageWidth="850" pageHeight="1100" math="0" shadow="0">
            <root>
                <mxCell id="0"/>
                <mxCell id="1" parent="0"/>
                <mxCell id="33" value="UserTable" style="shape=table;startSize=40;container=1;collapsible=0;childLayout=tableLayout;fillColor=#d5e8d4;strokeColor=#82b366;" parent="1" vertex="1">
                    <mxGeometry x="160" y="160" width="120" height="389.0000000000001" as="geometry"/>
                </mxCell>
                <mxCell id="34" value="" style="shape=tableRow;horizontal=0;startSize=0;swimlaneHead=0;swimlaneBody=0;strokeColor=inherit;top=0;left=0;bottom=0;right=0;collapsible=0;dropTarget=0;fillColor=none;points=[[0,0.5],[1,0.5]];portConstraint=eastwest;" parent="33" vertex="1">
                    <mxGeometry y="40" width="120" height="39" as="geometry"/>
                </mxCell>
                <mxCell id="35" value="ID" style="shape=partialRectangle;html=1;whiteSpace=wrap;connectable=0;strokeColor=inherit;overflow=hidden;fillColor=none;top=0;left=0;bottom=0;right=0;pointerEvents=1;" parent="34" vertex="1">
                    <mxGeometry width="70" height="39" as="geometry">
                        <mxRectangle width="70" height="39" as="alternateBounds"/>
                    </mxGeometry>
                </mxCell>
                <mxCell id="36" value="PK&lt;br&gt;String" style="shape=partialRectangle;html=1;whiteSpace=wrap;connectable=0;strokeColor=inherit;overflow=hidden;fillColor=none;top=0;left=0;bottom=0;right=0;pointerEvents=1;" parent="34" vertex="1">
                    <mxGeometry x="70" width="50" height="39" as="geometry">
                        <mxRectangle width="50" height="39" as="alternateBounds"/>
                    </mxGeometry>
                </mxCell>
                <mxCell id="40" value="" style="shape=tableRow;horizontal=0;startSize=0;swimlaneHead=0;swimlaneBody=0;strokeColor=inherit;top=0;left=0;bottom=0;right=0;collapsible=0;dropTarget=0;fillColor=none;points=[[0,0.5],[1,0.5]];portConstraint=eastwest;" parent="33" vertex="1">
                    <mxGeometry y="79" width="120" height="39" as="geometry"/>
                </mxCell>
                <mxCell id="41" value="Email" style="shape=partialRectangle;html=1;whiteSpace=wrap;connectable=0;strokeColor=inherit;overflow=hidden;fillColor=none;top=0;left=0;bottom=0;right=0;pointerEvents=1;" parent="40" vertex="1">
                    <mxGeometry width="70" height="39" as="geometry">
                        <mxRectangle width="70" height="39" as="alternateBounds"/>
                    </mxGeometry>
                </mxCell>
                <mxCell id="42" value="String" style="shape=partialRectangle;html=1;whiteSpace=wrap;connectable=0;strokeColor=inherit;overflow=hidden;fillColor=none;top=0;left=0;bottom=0;right=0;pointerEvents=1;" parent="40" vertex="1">
                    <mxGeometry x="70" width="50" height="39" as="geometry">
                        <mxRectangle width="50" height="39" as="alternateBounds"/>
                    </mxGeometry>
                </mxCell>
                <mxCell id="43" value="" style="shape=tableRow;horizontal=0;startSize=0;swimlaneHead=0;swimlaneBody=0;strokeColor=inherit;top=0;left=0;bottom=0;right=0;collapsible=0;dropTarget=0;fillColor=none;points=[[0,0.5],[1,0.5]];portConstraint=eastwest;" parent="33" vertex="1">
                    <mxGeometry y="118" width="120" height="38" as="geometry"/>
                </mxCell>
                <mxCell id="44" value="Password" style="shape=partialRectangle;html=1;whiteSpace=wrap;connectable=0;strokeColor=inherit;overflow=hidden;fillColor=none;top=0;left=0;bottom=0;right=0;pointerEvents=1;" parent="43" vertex="1">
                    <mxGeometry width="70" height="38" as="geometry">
                        <mxRectangle width="70" height="38" as="alternateBounds"/>
                    </mxGeometry>
                </mxCell>
                <mxCell id="45" value="hashed" style="shape=partialRectangle;html=1;whiteSpace=wrap;connectable=0;strokeColor=inherit;overflow=hidden;fillColor=none;top=0;left=0;bottom=0;right=0;pointerEvents=1;" parent="43" vertex="1">
                    <mxGeometry x="70" width="50" height="38" as="geometry">
                        <mxRectangle width="50" height="38" as="alternateBounds"/>
                    </mxGeometry>
                </mxCell>
                <mxCell id="46" value="" style="shape=tableRow;horizontal=0;startSize=0;swimlaneHead=0;swimlaneBody=0;strokeColor=inherit;top=0;left=0;bottom=0;right=0;collapsible=0;dropTarget=0;fillColor=none;points=[[0,0.5],[1,0.5]];portConstraint=eastwest;" parent="33" vertex="1">
                    <mxGeometry y="156" width="120" height="39" as="geometry"/>
                </mxCell>
                <mxCell id="47" value="First_Name" style="shape=partialRectangle;html=1;whiteSpace=wrap;connectable=0;strokeColor=inherit;overflow=hidden;fillColor=none;top=0;left=0;bottom=0;right=0;pointerEvents=1;" parent="46" vertex="1">
                    <mxGeometry width="70" height="39" as="geometry">
                        <mxRectangle width="70" height="39" as="alternateBounds"/>
                    </mxGeometry>
                </mxCell>
                <mxCell id="48" value="String" style="shape=partialRectangle;html=1;whiteSpace=wrap;connectable=0;strokeColor=inherit;overflow=hidden;fillColor=none;top=0;left=0;bottom=0;right=0;pointerEvents=1;" parent="46" vertex="1">
                    <mxGeometry x="70" width="50" height="39" as="geometry">
                        <mxRectangle width="50" height="39" as="alternateBounds"/>
                    </mxGeometry>
                </mxCell>
                <mxCell id="49" value="" style="shape=tableRow;horizontal=0;startSize=0;swimlaneHead=0;swimlaneBody=0;strokeColor=inherit;top=0;left=0;bottom=0;right=0;collapsible=0;dropTarget=0;fillColor=none;points=[[0,0.5],[1,0.5]];portConstraint=eastwest;" parent="33" vertex="1">
                    <mxGeometry y="195" width="120" height="39" as="geometry"/>
                </mxCell>
                <mxCell id="50" value="Last_Name" style="shape=partialRectangle;html=1;whiteSpace=wrap;connectable=0;strokeColor=inherit;overflow=hidden;fillColor=none;top=0;left=0;bottom=0;right=0;pointerEvents=1;" parent="49" vertex="1">
                    <mxGeometry width="70" height="39" as="geometry">
                        <mxRectangle width="70" height="39" as="alternateBounds"/>
                    </mxGeometry>
                </mxCell>
                <mxCell id="51" value="String" style="shape=partialRectangle;html=1;whiteSpace=wrap;connectable=0;strokeColor=inherit;overflow=hidden;fillColor=none;top=0;left=0;bottom=0;right=0;pointerEvents=1;" parent="49" vertex="1">
                    <mxGeometry x="70" width="50" height="39" as="geometry">
                        <mxRectangle width="50" height="39" as="alternateBounds"/>
                    </mxGeometry>
                </mxCell>
                <mxCell id="73" style="shape=tableRow;horizontal=0;startSize=0;swimlaneHead=0;swimlaneBody=0;strokeColor=inherit;top=0;left=0;bottom=0;right=0;collapsible=0;dropTarget=0;fillColor=none;points=[[0,0.5],[1,0.5]];portConstraint=eastwest;" parent="33" vertex="1">
                    <mxGeometry y="234" width="120" height="39" as="geometry"/>
                </mxCell>
                <mxCell id="74" value="City" style="shape=partialRectangle;html=1;whiteSpace=wrap;connectable=0;strokeColor=inherit;overflow=hidden;fillColor=none;top=0;left=0;bottom=0;right=0;pointerEvents=1;" parent="73" vertex="1">
                    <mxGeometry width="70" height="39" as="geometry">
                        <mxRectangle width="70" height="39" as="alternateBounds"/>
                    </mxGeometry>
                </mxCell>
                <mxCell id="75" value="String" style="shape=partialRectangle;html=1;whiteSpace=wrap;connectable=0;strokeColor=inherit;overflow=hidden;fillColor=none;top=0;left=0;bottom=0;right=0;pointerEvents=1;" parent="73" vertex="1">
                    <mxGeometry x="70" width="50" height="39" as="geometry">
                        <mxRectangle width="50" height="39" as="alternateBounds"/>
                    </mxGeometry>
                </mxCell>
                <mxCell id="76" style="shape=tableRow;horizontal=0;startSize=0;swimlaneHead=0;swimlaneBody=0;strokeColor=inherit;top=0;left=0;bottom=0;right=0;collapsible=0;dropTarget=0;fillColor=none;points=[[0,0.5],[1,0.5]];portConstraint=eastwest;" parent="33" vertex="1">
                    <mxGeometry y="273" width="120" height="38" as="geometry"/>
                </mxCell>
                <mxCell id="77" value="Postal Code" style="shape=partialRectangle;html=1;whiteSpace=wrap;connectable=0;strokeColor=inherit;overflow=hidden;fillColor=none;top=0;left=0;bottom=0;right=0;pointerEvents=1;" parent="76" vertex="1">
                    <mxGeometry width="70" height="38" as="geometry">
                        <mxRectangle width="70" height="38" as="alternateBounds"/>
                    </mxGeometry>
                </mxCell>
                <mxCell id="78" value="Number" style="shape=partialRectangle;html=1;whiteSpace=wrap;connectable=0;strokeColor=inherit;overflow=hidden;fillColor=none;top=0;left=0;bottom=0;right=0;pointerEvents=1;" parent="76" vertex="1">
                    <mxGeometry x="70" width="50" height="38" as="geometry">
                        <mxRectangle width="50" height="38" as="alternateBounds"/>
                    </mxGeometry>
                </mxCell>
                <mxCell id="79" style="shape=tableRow;horizontal=0;startSize=0;swimlaneHead=0;swimlaneBody=0;strokeColor=inherit;top=0;left=0;bottom=0;right=0;collapsible=0;dropTarget=0;fillColor=none;points=[[0,0.5],[1,0.5]];portConstraint=eastwest;" parent="33" vertex="1">
                    <mxGeometry y="311" width="120" height="39" as="geometry"/>
                </mxCell>
                <mxCell id="80" value="Street" style="shape=partialRectangle;html=1;whiteSpace=wrap;connectable=0;strokeColor=inherit;overflow=hidden;fillColor=none;top=0;left=0;bottom=0;right=0;pointerEvents=1;" parent="79" vertex="1">
                    <mxGeometry width="70" height="39" as="geometry">
                        <mxRectangle width="70" height="39" as="alternateBounds"/>
                    </mxGeometry>
                </mxCell>
                <mxCell id="81" value="String" style="shape=partialRectangle;html=1;whiteSpace=wrap;connectable=0;strokeColor=inherit;overflow=hidden;fillColor=none;top=0;left=0;bottom=0;right=0;pointerEvents=1;" parent="79" vertex="1">
                    <mxGeometry x="70" width="50" height="39" as="geometry">
                        <mxRectangle width="50" height="39" as="alternateBounds"/>
                    </mxGeometry>
                </mxCell>
                <mxCell id="82" style="shape=tableRow;horizontal=0;startSize=0;swimlaneHead=0;swimlaneBody=0;strokeColor=inherit;top=0;left=0;bottom=0;right=0;collapsible=0;dropTarget=0;fillColor=none;points=[[0,0.5],[1,0.5]];portConstraint=eastwest;" parent="33" vertex="1">
                    <mxGeometry y="350" width="120" height="39" as="geometry"/>
                </mxCell>
                <mxCell id="83" value="Role" style="shape=partialRectangle;html=1;whiteSpace=wrap;connectable=0;strokeColor=inherit;overflow=hidden;fillColor=none;top=0;left=0;bottom=0;right=0;pointerEvents=1;" parent="82" vertex="1">
                    <mxGeometry width="70" height="39" as="geometry">
                        <mxRectangle width="70" height="39" as="alternateBounds"/>
                    </mxGeometry>
                </mxCell>
                <mxCell id="84" value="String" style="shape=partialRectangle;html=1;whiteSpace=wrap;connectable=0;strokeColor=inherit;overflow=hidden;fillColor=none;top=0;left=0;bottom=0;right=0;pointerEvents=1;" parent="82" vertex="1">
                    <mxGeometry x="70" width="50" height="39" as="geometry">
                        <mxRectangle width="50" height="39" as="alternateBounds"/>
                    </mxGeometry>
                </mxCell>
                <mxCell id="85" value="ProductTable" style="shape=table;startSize=40;container=1;collapsible=0;childLayout=tableLayout;fillColor=#f0a30a;strokeColor=#BD7000;fontColor=#000000;" parent="1" vertex="1">
                    <mxGeometry x="560" y="160" width="120" height="350.0000000000001" as="geometry"/>
                </mxCell>
                <mxCell id="86" value="" style="shape=tableRow;horizontal=0;startSize=0;swimlaneHead=0;swimlaneBody=0;strokeColor=inherit;top=0;left=0;bottom=0;right=0;collapsible=0;dropTarget=0;fillColor=none;points=[[0,0.5],[1,0.5]];portConstraint=eastwest;" parent="85" vertex="1">
                    <mxGeometry y="40" width="120" height="39" as="geometry"/>
                </mxCell>
                <mxCell id="87" value="ID" style="shape=partialRectangle;html=1;whiteSpace=wrap;connectable=0;strokeColor=inherit;overflow=hidden;fillColor=none;top=0;left=0;bottom=0;right=0;pointerEvents=1;" parent="86" vertex="1">
                    <mxGeometry width="70" height="39" as="geometry">
                        <mxRectangle width="70" height="39" as="alternateBounds"/>
                    </mxGeometry>
                </mxCell>
                <mxCell id="88" value="PK&lt;br&gt;String" style="shape=partialRectangle;html=1;whiteSpace=wrap;connectable=0;strokeColor=inherit;overflow=hidden;fillColor=none;top=0;left=0;bottom=0;right=0;pointerEvents=1;" parent="86" vertex="1">
                    <mxGeometry x="70" width="50" height="39" as="geometry">
                        <mxRectangle width="50" height="39" as="alternateBounds"/>
                    </mxGeometry>
                </mxCell>
                <mxCell id="89" value="" style="shape=tableRow;horizontal=0;startSize=0;swimlaneHead=0;swimlaneBody=0;strokeColor=inherit;top=0;left=0;bottom=0;right=0;collapsible=0;dropTarget=0;fillColor=none;points=[[0,0.5],[1,0.5]];portConstraint=eastwest;" parent="85" vertex="1">
                    <mxGeometry y="79" width="120" height="39" as="geometry"/>
                </mxCell>
                <mxCell id="90" value="Title" style="shape=partialRectangle;html=1;whiteSpace=wrap;connectable=0;strokeColor=inherit;overflow=hidden;fillColor=none;top=0;left=0;bottom=0;right=0;pointerEvents=1;" parent="89" vertex="1">
                    <mxGeometry width="70" height="39" as="geometry">
                        <mxRectangle width="70" height="39" as="alternateBounds"/>
                    </mxGeometry>
                </mxCell>
                <mxCell id="91" value="String" style="shape=partialRectangle;html=1;whiteSpace=wrap;connectable=0;strokeColor=inherit;overflow=hidden;fillColor=none;top=0;left=0;bottom=0;right=0;pointerEvents=1;" parent="89" vertex="1">
                    <mxGeometry x="70" width="50" height="39" as="geometry">
                        <mxRectangle width="50" height="39" as="alternateBounds"/>
                    </mxGeometry>
                </mxCell>
                <mxCell id="92" value="" style="shape=tableRow;horizontal=0;startSize=0;swimlaneHead=0;swimlaneBody=0;strokeColor=inherit;top=0;left=0;bottom=0;right=0;collapsible=0;dropTarget=0;fillColor=none;points=[[0,0.5],[1,0.5]];portConstraint=eastwest;" parent="85" vertex="1">
                    <mxGeometry y="118" width="120" height="38" as="geometry"/>
                </mxCell>
                <mxCell id="93" value="Description" style="shape=partialRectangle;html=1;whiteSpace=wrap;connectable=0;strokeColor=inherit;overflow=hidden;fillColor=none;top=0;left=0;bottom=0;right=0;pointerEvents=1;" parent="92" vertex="1">
                    <mxGeometry width="70" height="38" as="geometry">
                        <mxRectangle width="70" height="38" as="alternateBounds"/>
                    </mxGeometry>
                </mxCell>
                <mxCell id="94" value="String" style="shape=partialRectangle;html=1;whiteSpace=wrap;connectable=0;strokeColor=inherit;overflow=hidden;fillColor=none;top=0;left=0;bottom=0;right=0;pointerEvents=1;" parent="92" vertex="1">
                    <mxGeometry x="70" width="50" height="38" as="geometry">
                        <mxRectangle width="50" height="38" as="alternateBounds"/>
                    </mxGeometry>
                </mxCell>
                <mxCell id="95" value="" style="shape=tableRow;horizontal=0;startSize=0;swimlaneHead=0;swimlaneBody=0;strokeColor=inherit;top=0;left=0;bottom=0;right=0;collapsible=0;dropTarget=0;fillColor=none;points=[[0,0.5],[1,0.5]];portConstraint=eastwest;" parent="85" vertex="1">
                    <mxGeometry y="156" width="120" height="39" as="geometry"/>
                </mxCell>
                <mxCell id="96" value="Price" style="shape=partialRectangle;html=1;whiteSpace=wrap;connectable=0;strokeColor=inherit;overflow=hidden;fillColor=none;top=0;left=0;bottom=0;right=0;pointerEvents=1;" parent="95" vertex="1">
                    <mxGeometry width="70" height="39" as="geometry">
                        <mxRectangle width="70" height="39" as="alternateBounds"/>
                    </mxGeometry>
                </mxCell>
                <mxCell id="97" value="Number" style="shape=partialRectangle;html=1;whiteSpace=wrap;connectable=0;strokeColor=inherit;overflow=hidden;fillColor=none;top=0;left=0;bottom=0;right=0;pointerEvents=1;" parent="95" vertex="1">
                    <mxGeometry x="70" width="50" height="39" as="geometry">
                        <mxRectangle width="50" height="39" as="alternateBounds"/>
                    </mxGeometry>
                </mxCell>
                <mxCell id="98" value="" style="shape=tableRow;horizontal=0;startSize=0;swimlaneHead=0;swimlaneBody=0;strokeColor=inherit;top=0;left=0;bottom=0;right=0;collapsible=0;dropTarget=0;fillColor=none;points=[[0,0.5],[1,0.5]];portConstraint=eastwest;" parent="85" vertex="1">
                    <mxGeometry y="195" width="120" height="39" as="geometry"/>
                </mxCell>
                <mxCell id="99" value="Images []" style="shape=partialRectangle;html=1;whiteSpace=wrap;connectable=0;strokeColor=inherit;overflow=hidden;fillColor=none;top=0;left=0;bottom=0;right=0;pointerEvents=1;" parent="98" vertex="1">
                    <mxGeometry width="70" height="39" as="geometry">
                        <mxRectangle width="70" height="39" as="alternateBounds"/>
                    </mxGeometry>
                </mxCell>
                <mxCell id="100" value="string" style="shape=partialRectangle;html=1;whiteSpace=wrap;connectable=0;strokeColor=inherit;overflow=hidden;fillColor=none;top=0;left=0;bottom=0;right=0;pointerEvents=1;" parent="98" vertex="1">
                    <mxGeometry x="70" width="50" height="39" as="geometry">
                        <mxRectangle width="50" height="39" as="alternateBounds"/>
                    </mxGeometry>
                </mxCell>
                <mxCell id="101" style="shape=tableRow;horizontal=0;startSize=0;swimlaneHead=0;swimlaneBody=0;strokeColor=inherit;top=0;left=0;bottom=0;right=0;collapsible=0;dropTarget=0;fillColor=none;points=[[0,0.5],[1,0.5]];portConstraint=eastwest;" parent="85" vertex="1">
                    <mxGeometry y="234" width="120" height="39" as="geometry"/>
                </mxCell>
                <mxCell id="102" value="creation_at" style="shape=partialRectangle;html=1;whiteSpace=wrap;connectable=0;strokeColor=inherit;overflow=hidden;fillColor=none;top=0;left=0;bottom=0;right=0;pointerEvents=1;" parent="101" vertex="1">
                    <mxGeometry width="70" height="39" as="geometry">
                        <mxRectangle width="70" height="39" as="alternateBounds"/>
                    </mxGeometry>
                </mxCell>
                <mxCell id="103" value="date" style="shape=partialRectangle;html=1;whiteSpace=wrap;connectable=0;strokeColor=inherit;overflow=hidden;fillColor=none;top=0;left=0;bottom=0;right=0;pointerEvents=1;" parent="101" vertex="1">
                    <mxGeometry x="70" width="50" height="39" as="geometry">
                        <mxRectangle width="50" height="39" as="alternateBounds"/>
                    </mxGeometry>
                </mxCell>
                <mxCell id="104" style="shape=tableRow;horizontal=0;startSize=0;swimlaneHead=0;swimlaneBody=0;strokeColor=inherit;top=0;left=0;bottom=0;right=0;collapsible=0;dropTarget=0;fillColor=none;points=[[0,0.5],[1,0.5]];portConstraint=eastwest;" parent="85" vertex="1">
                    <mxGeometry y="273" width="120" height="38" as="geometry"/>
                </mxCell>
                <mxCell id="105" value="updated_at" style="shape=partialRectangle;html=1;whiteSpace=wrap;connectable=0;strokeColor=inherit;overflow=hidden;fillColor=none;top=0;left=0;bottom=0;right=0;pointerEvents=1;" parent="104" vertex="1">
                    <mxGeometry width="70" height="38" as="geometry">
                        <mxRectangle width="70" height="38" as="alternateBounds"/>
                    </mxGeometry>
                </mxCell>
                <mxCell id="106" value="date" style="shape=partialRectangle;html=1;whiteSpace=wrap;connectable=0;strokeColor=inherit;overflow=hidden;fillColor=none;top=0;left=0;bottom=0;right=0;pointerEvents=1;" parent="104" vertex="1">
                    <mxGeometry x="70" width="50" height="38" as="geometry">
                        <mxRectangle width="50" height="38" as="alternateBounds"/>
                    </mxGeometry>
                </mxCell>
                <mxCell id="107" style="shape=tableRow;horizontal=0;startSize=0;swimlaneHead=0;swimlaneBody=0;strokeColor=inherit;top=0;left=0;bottom=0;right=0;collapsible=0;dropTarget=0;fillColor=none;points=[[0,0.5],[1,0.5]];portConstraint=eastwest;" parent="85" vertex="1">
                    <mxGeometry y="311" width="120" height="39" as="geometry"/>
                </mxCell>
                <mxCell id="108" value="rating []" style="shape=partialRectangle;html=1;whiteSpace=wrap;connectable=0;strokeColor=inherit;overflow=hidden;fillColor=none;top=0;left=0;bottom=0;right=0;pointerEvents=1;" parent="107" vertex="1">
                    <mxGeometry width="70" height="39" as="geometry">
                        <mxRectangle width="70" height="39" as="alternateBounds"/>
                    </mxGeometry>
                </mxCell>
                <mxCell id="109" value="String" style="shape=partialRectangle;html=1;whiteSpace=wrap;connectable=0;strokeColor=inherit;overflow=hidden;fillColor=none;top=0;left=0;bottom=0;right=0;pointerEvents=1;" parent="107" vertex="1">
                    <mxGeometry x="70" width="50" height="39" as="geometry">
                        <mxRectangle width="50" height="39" as="alternateBounds"/>
                    </mxGeometry>
                </mxCell>
                <mxCell id="110" value="OrderTable" style="shape=table;startSize=40;container=1;collapsible=0;childLayout=tableLayout;fillColor=#fa6800;strokeColor=#C73500;fontColor=#000000;" parent="1" vertex="1">
                    <mxGeometry x="360" y="80" width="120" height="317.0000000000001" as="geometry"/>
                </mxCell>
                <mxCell id="111" value="" style="shape=tableRow;horizontal=0;startSize=0;swimlaneHead=0;swimlaneBody=0;strokeColor=inherit;top=0;left=0;bottom=0;right=0;collapsible=0;dropTarget=0;fillColor=none;points=[[0,0.5],[1,0.5]];portConstraint=eastwest;" parent="110" vertex="1">
                    <mxGeometry y="40" width="120" height="39" as="geometry"/>
                </mxCell>
                <mxCell id="112" value="ID" style="shape=partialRectangle;html=1;whiteSpace=wrap;connectable=0;strokeColor=inherit;overflow=hidden;fillColor=none;top=0;left=0;bottom=0;right=0;pointerEvents=1;" parent="111" vertex="1">
                    <mxGeometry width="70" height="39" as="geometry">
                        <mxRectangle width="70" height="39" as="alternateBounds"/>
                    </mxGeometry>
                </mxCell>
                <mxCell id="113" value="PK&lt;br&gt;String" style="shape=partialRectangle;html=1;whiteSpace=wrap;connectable=0;strokeColor=inherit;overflow=hidden;fillColor=none;top=0;left=0;bottom=0;right=0;pointerEvents=1;" parent="111" vertex="1">
                    <mxGeometry x="70" width="50" height="39" as="geometry">
                        <mxRectangle width="50" height="39" as="alternateBounds"/>
                    </mxGeometry>
                </mxCell>
                <mxCell id="114" value="" style="shape=tableRow;horizontal=0;startSize=0;swimlaneHead=0;swimlaneBody=0;strokeColor=inherit;top=0;left=0;bottom=0;right=0;collapsible=0;dropTarget=0;fillColor=none;points=[[0,0.5],[1,0.5]];portConstraint=eastwest;" parent="110" vertex="1">
                    <mxGeometry y="79" width="120" height="39" as="geometry"/>
                </mxCell>
                <mxCell id="115" value="UserId" style="shape=partialRectangle;html=1;whiteSpace=wrap;connectable=0;strokeColor=inherit;overflow=hidden;fillColor=none;top=0;left=0;bottom=0;right=0;pointerEvents=1;" parent="114" vertex="1">
                    <mxGeometry width="70" height="39" as="geometry">
                        <mxRectangle width="70" height="39" as="alternateBounds"/>
                    </mxGeometry>
                </mxCell>
                <mxCell id="116" value="FK" style="shape=partialRectangle;html=1;whiteSpace=wrap;connectable=0;strokeColor=inherit;overflow=hidden;fillColor=none;top=0;left=0;bottom=0;right=0;pointerEvents=1;" parent="114" vertex="1">
                    <mxGeometry x="70" width="50" height="39" as="geometry">
                        <mxRectangle width="50" height="39" as="alternateBounds"/>
                    </mxGeometry>
                </mxCell>
                <mxCell id="117" value="" style="shape=tableRow;horizontal=0;startSize=0;swimlaneHead=0;swimlaneBody=0;strokeColor=inherit;top=0;left=0;bottom=0;right=0;collapsible=0;dropTarget=0;fillColor=none;points=[[0,0.5],[1,0.5]];portConstraint=eastwest;" parent="110" vertex="1">
                    <mxGeometry y="118" width="120" height="41" as="geometry"/>
                </mxCell>
                <mxCell id="118" value="Prodcut IDs" style="shape=partialRectangle;html=1;whiteSpace=wrap;connectable=0;strokeColor=inherit;overflow=hidden;fillColor=none;top=0;left=0;bottom=0;right=0;pointerEvents=1;" parent="117" vertex="1">
                    <mxGeometry width="70" height="41" as="geometry">
                        <mxRectangle width="70" height="41" as="alternateBounds"/>
                    </mxGeometry>
                </mxCell>
                <mxCell id="119" value="FK []" style="shape=partialRectangle;html=1;whiteSpace=wrap;connectable=0;strokeColor=inherit;overflow=hidden;fillColor=none;top=0;left=0;bottom=0;right=0;pointerEvents=1;" parent="117" vertex="1">
                    <mxGeometry x="70" width="50" height="41" as="geometry">
                        <mxRectangle width="50" height="41" as="alternateBounds"/>
                    </mxGeometry>
                </mxCell>
                <mxCell id="120" value="" style="shape=tableRow;horizontal=0;startSize=0;swimlaneHead=0;swimlaneBody=0;strokeColor=inherit;top=0;left=0;bottom=0;right=0;collapsible=0;dropTarget=0;fillColor=none;points=[[0,0.5],[1,0.5]];portConstraint=eastwest;" parent="110" vertex="1">
                    <mxGeometry y="159" width="120" height="39" as="geometry"/>
                </mxCell>
                <mxCell id="121" value="created_at" style="shape=partialRectangle;html=1;whiteSpace=wrap;connectable=0;strokeColor=inherit;overflow=hidden;fillColor=none;top=0;left=0;bottom=0;right=0;pointerEvents=1;" parent="120" vertex="1">
                    <mxGeometry width="70" height="39" as="geometry">
                        <mxRectangle width="70" height="39" as="alternateBounds"/>
                    </mxGeometry>
                </mxCell>
                <mxCell id="122" value="Date" style="shape=partialRectangle;html=1;whiteSpace=wrap;connectable=0;strokeColor=inherit;overflow=hidden;fillColor=none;top=0;left=0;bottom=0;right=0;pointerEvents=1;" parent="120" vertex="1">
                    <mxGeometry x="70" width="50" height="39" as="geometry">
                        <mxRectangle width="50" height="39" as="alternateBounds"/>
                    </mxGeometry>
                </mxCell>
                <mxCell id="123" value="" style="shape=tableRow;horizontal=0;startSize=0;swimlaneHead=0;swimlaneBody=0;strokeColor=inherit;top=0;left=0;bottom=0;right=0;collapsible=0;dropTarget=0;fillColor=none;points=[[0,0.5],[1,0.5]];portConstraint=eastwest;" parent="110" vertex="1">
                    <mxGeometry y="198" width="120" height="39" as="geometry"/>
                </mxCell>
                <mxCell id="124" value="Update_at" style="shape=partialRectangle;html=1;whiteSpace=wrap;connectable=0;strokeColor=inherit;overflow=hidden;fillColor=none;top=0;left=0;bottom=0;right=0;pointerEvents=1;" parent="123" vertex="1">
                    <mxGeometry width="70" height="39" as="geometry">
                        <mxRectangle width="70" height="39" as="alternateBounds"/>
                    </mxGeometry>
                </mxCell>
                <mxCell id="125" value="Date" style="shape=partialRectangle;html=1;whiteSpace=wrap;connectable=0;strokeColor=inherit;overflow=hidden;fillColor=none;top=0;left=0;bottom=0;right=0;pointerEvents=1;" parent="123" vertex="1">
                    <mxGeometry x="70" width="50" height="39" as="geometry">
                        <mxRectangle width="50" height="39" as="alternateBounds"/>
                    </mxGeometry>
                </mxCell>
                <mxCell id="126" style="shape=tableRow;horizontal=0;startSize=0;swimlaneHead=0;swimlaneBody=0;strokeColor=inherit;top=0;left=0;bottom=0;right=0;collapsible=0;dropTarget=0;fillColor=none;points=[[0,0.5],[1,0.5]];portConstraint=eastwest;" parent="110" vertex="1">
                    <mxGeometry y="237" width="120" height="42" as="geometry"/>
                </mxCell>
                <mxCell id="127" value="Price" style="shape=partialRectangle;html=1;whiteSpace=wrap;connectable=0;strokeColor=inherit;overflow=hidden;fillColor=none;top=0;left=0;bottom=0;right=0;pointerEvents=1;" parent="126" vertex="1">
                    <mxGeometry width="70" height="42" as="geometry">
                        <mxRectangle width="70" height="42" as="alternateBounds"/>
                    </mxGeometry>
                </mxCell>
                <mxCell id="128" value="Number" style="shape=partialRectangle;html=1;whiteSpace=wrap;connectable=0;strokeColor=inherit;overflow=hidden;fillColor=none;top=0;left=0;bottom=0;right=0;pointerEvents=1;" parent="126" vertex="1">
                    <mxGeometry x="70" width="50" height="42" as="geometry">
                        <mxRectangle width="50" height="42" as="alternateBounds"/>
                    </mxGeometry>
                </mxCell>
                <mxCell id="129" style="shape=tableRow;horizontal=0;startSize=0;swimlaneHead=0;swimlaneBody=0;strokeColor=inherit;top=0;left=0;bottom=0;right=0;collapsible=0;dropTarget=0;fillColor=none;points=[[0,0.5],[1,0.5]];portConstraint=eastwest;" parent="110" vertex="1">
                    <mxGeometry y="279" width="120" height="38" as="geometry"/>
                </mxCell>
                <mxCell id="130" value="Delivery&lt;br&gt;Date" style="shape=partialRectangle;html=1;whiteSpace=wrap;connectable=0;strokeColor=inherit;overflow=hidden;fillColor=none;top=0;left=0;bottom=0;right=0;pointerEvents=1;" parent="129" vertex="1">
                    <mxGeometry width="70" height="38" as="geometry">
                        <mxRectangle width="70" height="38" as="alternateBounds"/>
                    </mxGeometry>
                </mxCell>
                <mxCell id="131" value="Date" style="shape=partialRectangle;html=1;whiteSpace=wrap;connectable=0;strokeColor=inherit;overflow=hidden;fillColor=none;top=0;left=0;bottom=0;right=0;pointerEvents=1;" parent="129" vertex="1">
                    <mxGeometry x="70" width="50" height="38" as="geometry">
                        <mxRectangle width="50" height="38" as="alternateBounds"/>
                    </mxGeometry>
                </mxCell>
                <mxCell id="165" value="ReviewTable" style="shape=table;startSize=40;container=1;collapsible=0;childLayout=tableLayout;fillColor=#b1ddf0;strokeColor=#10739e;" vertex="1" parent="1">
                    <mxGeometry x="360" y="440" width="120" height="317.0000000000001" as="geometry"/>
                </mxCell>
                <mxCell id="166" value="" style="shape=tableRow;horizontal=0;startSize=0;swimlaneHead=0;swimlaneBody=0;strokeColor=inherit;top=0;left=0;bottom=0;right=0;collapsible=0;dropTarget=0;fillColor=none;points=[[0,0.5],[1,0.5]];portConstraint=eastwest;" vertex="1" parent="165">
                    <mxGeometry y="40" width="120" height="39" as="geometry"/>
                </mxCell>
                <mxCell id="167" value="ID" style="shape=partialRectangle;html=1;whiteSpace=wrap;connectable=0;strokeColor=inherit;overflow=hidden;fillColor=none;top=0;left=0;bottom=0;right=0;pointerEvents=1;" vertex="1" parent="166">
                    <mxGeometry width="70" height="39" as="geometry">
                        <mxRectangle width="70" height="39" as="alternateBounds"/>
                    </mxGeometry>
                </mxCell>
                <mxCell id="168" value="PK&lt;br&gt;String" style="shape=partialRectangle;html=1;whiteSpace=wrap;connectable=0;strokeColor=inherit;overflow=hidden;fillColor=none;top=0;left=0;bottom=0;right=0;pointerEvents=1;" vertex="1" parent="166">
                    <mxGeometry x="70" width="50" height="39" as="geometry">
                        <mxRectangle width="50" height="39" as="alternateBounds"/>
                    </mxGeometry>
                </mxCell>
                <mxCell id="169" value="" style="shape=tableRow;horizontal=0;startSize=0;swimlaneHead=0;swimlaneBody=0;strokeColor=inherit;top=0;left=0;bottom=0;right=0;collapsible=0;dropTarget=0;fillColor=none;points=[[0,0.5],[1,0.5]];portConstraint=eastwest;" vertex="1" parent="165">
                    <mxGeometry y="79" width="120" height="39" as="geometry"/>
                </mxCell>
                <mxCell id="170" value="UserId" style="shape=partialRectangle;html=1;whiteSpace=wrap;connectable=0;strokeColor=inherit;overflow=hidden;fillColor=none;top=0;left=0;bottom=0;right=0;pointerEvents=1;" vertex="1" parent="169">
                    <mxGeometry width="70" height="39" as="geometry">
                        <mxRectangle width="70" height="39" as="alternateBounds"/>
                    </mxGeometry>
                </mxCell>
                <mxCell id="171" value="FK" style="shape=partialRectangle;html=1;whiteSpace=wrap;connectable=0;strokeColor=inherit;overflow=hidden;fillColor=none;top=0;left=0;bottom=0;right=0;pointerEvents=1;" vertex="1" parent="169">
                    <mxGeometry x="70" width="50" height="39" as="geometry">
                        <mxRectangle width="50" height="39" as="alternateBounds"/>
                    </mxGeometry>
                </mxCell>
                <mxCell id="172" value="" style="shape=tableRow;horizontal=0;startSize=0;swimlaneHead=0;swimlaneBody=0;strokeColor=inherit;top=0;left=0;bottom=0;right=0;collapsible=0;dropTarget=0;fillColor=none;points=[[0,0.5],[1,0.5]];portConstraint=eastwest;" vertex="1" parent="165">
                    <mxGeometry y="118" width="120" height="41" as="geometry"/>
                </mxCell>
                <mxCell id="173" value="Prodcut ID" style="shape=partialRectangle;html=1;whiteSpace=wrap;connectable=0;strokeColor=inherit;overflow=hidden;fillColor=none;top=0;left=0;bottom=0;right=0;pointerEvents=1;" vertex="1" parent="172">
                    <mxGeometry width="70" height="41" as="geometry">
                        <mxRectangle width="70" height="41" as="alternateBounds"/>
                    </mxGeometry>
                </mxCell>
                <mxCell id="174" value="FK" style="shape=partialRectangle;html=1;whiteSpace=wrap;connectable=0;strokeColor=inherit;overflow=hidden;fillColor=none;top=0;left=0;bottom=0;right=0;pointerEvents=1;" vertex="1" parent="172">
                    <mxGeometry x="70" width="50" height="41" as="geometry">
                        <mxRectangle width="50" height="41" as="alternateBounds"/>
                    </mxGeometry>
                </mxCell>
                <mxCell id="175" value="" style="shape=tableRow;horizontal=0;startSize=0;swimlaneHead=0;swimlaneBody=0;strokeColor=inherit;top=0;left=0;bottom=0;right=0;collapsible=0;dropTarget=0;fillColor=none;points=[[0,0.5],[1,0.5]];portConstraint=eastwest;" vertex="1" parent="165">
                    <mxGeometry y="159" width="120" height="39" as="geometry"/>
                </mxCell>
                <mxCell id="176" value="created_at" style="shape=partialRectangle;html=1;whiteSpace=wrap;connectable=0;strokeColor=inherit;overflow=hidden;fillColor=none;top=0;left=0;bottom=0;right=0;pointerEvents=1;" vertex="1" parent="175">
                    <mxGeometry width="70" height="39" as="geometry">
                        <mxRectangle width="70" height="39" as="alternateBounds"/>
                    </mxGeometry>
                </mxCell>
                <mxCell id="177" value="Date" style="shape=partialRectangle;html=1;whiteSpace=wrap;connectable=0;strokeColor=inherit;overflow=hidden;fillColor=none;top=0;left=0;bottom=0;right=0;pointerEvents=1;" vertex="1" parent="175">
                    <mxGeometry x="70" width="50" height="39" as="geometry">
                        <mxRectangle width="50" height="39" as="alternateBounds"/>
                    </mxGeometry>
                </mxCell>
                <mxCell id="178" value="" style="shape=tableRow;horizontal=0;startSize=0;swimlaneHead=0;swimlaneBody=0;strokeColor=inherit;top=0;left=0;bottom=0;right=0;collapsible=0;dropTarget=0;fillColor=none;points=[[0,0.5],[1,0.5]];portConstraint=eastwest;" vertex="1" parent="165">
                    <mxGeometry y="198" width="120" height="39" as="geometry"/>
                </mxCell>
                <mxCell id="179" value="Update_at" style="shape=partialRectangle;html=1;whiteSpace=wrap;connectable=0;strokeColor=inherit;overflow=hidden;fillColor=none;top=0;left=0;bottom=0;right=0;pointerEvents=1;" vertex="1" parent="178">
                    <mxGeometry width="70" height="39" as="geometry">
                        <mxRectangle width="70" height="39" as="alternateBounds"/>
                    </mxGeometry>
                </mxCell>
                <mxCell id="180" value="Date" style="shape=partialRectangle;html=1;whiteSpace=wrap;connectable=0;strokeColor=inherit;overflow=hidden;fillColor=none;top=0;left=0;bottom=0;right=0;pointerEvents=1;" vertex="1" parent="178">
                    <mxGeometry x="70" width="50" height="39" as="geometry">
                        <mxRectangle width="50" height="39" as="alternateBounds"/>
                    </mxGeometry>
                </mxCell>
                <mxCell id="181" style="shape=tableRow;horizontal=0;startSize=0;swimlaneHead=0;swimlaneBody=0;strokeColor=inherit;top=0;left=0;bottom=0;right=0;collapsible=0;dropTarget=0;fillColor=none;points=[[0,0.5],[1,0.5]];portConstraint=eastwest;" vertex="1" parent="165">
                    <mxGeometry y="237" width="120" height="42" as="geometry"/>
                </mxCell>
                <mxCell id="182" value="Rating" style="shape=partialRectangle;html=1;whiteSpace=wrap;connectable=0;strokeColor=inherit;overflow=hidden;fillColor=none;top=0;left=0;bottom=0;right=0;pointerEvents=1;" vertex="1" parent="181">
                    <mxGeometry width="70" height="42" as="geometry">
                        <mxRectangle width="70" height="42" as="alternateBounds"/>
                    </mxGeometry>
                </mxCell>
                <mxCell id="183" value="Number" style="shape=partialRectangle;html=1;whiteSpace=wrap;connectable=0;strokeColor=inherit;overflow=hidden;fillColor=none;top=0;left=0;bottom=0;right=0;pointerEvents=1;" vertex="1" parent="181">
                    <mxGeometry x="70" width="50" height="42" as="geometry">
                        <mxRectangle width="50" height="42" as="alternateBounds"/>
                    </mxGeometry>
                </mxCell>
                <mxCell id="184" style="shape=tableRow;horizontal=0;startSize=0;swimlaneHead=0;swimlaneBody=0;strokeColor=inherit;top=0;left=0;bottom=0;right=0;collapsible=0;dropTarget=0;fillColor=none;points=[[0,0.5],[1,0.5]];portConstraint=eastwest;" vertex="1" parent="165">
                    <mxGeometry y="279" width="120" height="38" as="geometry"/>
                </mxCell>
                <mxCell id="185" value="Description" style="shape=partialRectangle;html=1;whiteSpace=wrap;connectable=0;strokeColor=inherit;overflow=hidden;fillColor=none;top=0;left=0;bottom=0;right=0;pointerEvents=1;" vertex="1" parent="184">
                    <mxGeometry width="70" height="38" as="geometry">
                        <mxRectangle width="70" height="38" as="alternateBounds"/>
                    </mxGeometry>
                </mxCell>
                <mxCell id="186" value="String" style="shape=partialRectangle;html=1;whiteSpace=wrap;connectable=0;strokeColor=inherit;overflow=hidden;fillColor=none;top=0;left=0;bottom=0;right=0;pointerEvents=1;" vertex="1" parent="184">
                    <mxGeometry x="70" width="50" height="38" as="geometry">
                        <mxRectangle width="50" height="38" as="alternateBounds"/>
                    </mxGeometry>
                </mxCell>
                <mxCell id="187" style="edgeStyle=none;html=1;exitX=1;exitY=0.5;exitDx=0;exitDy=0;entryX=0;entryY=0.5;entryDx=0;entryDy=0;endArrow=ERone;endFill=0;" edge="1" parent="1" source="34" target="114">
                    <mxGeometry relative="1" as="geometry">
                        <mxPoint x="330" y="219.5" as="targetPoint"/>
                        <Array as="points">
                            <mxPoint x="320" y="220"/>
                            <mxPoint x="320" y="180"/>
                        </Array>
                    </mxGeometry>
                </mxCell>
                <mxCell id="188" style="edgeStyle=none;html=1;exitX=1;exitY=0.5;exitDx=0;exitDy=0;entryX=0;entryY=0.5;entryDx=0;entryDy=0;endArrow=ERone;endFill=0;" edge="1" parent="1" source="34" target="169">
                    <mxGeometry relative="1" as="geometry">
                        <Array as="points">
                            <mxPoint x="320" y="220"/>
                            <mxPoint x="320" y="540"/>
                        </Array>
                    </mxGeometry>
                </mxCell>
                <mxCell id="189" style="edgeStyle=none;html=1;exitX=0;exitY=0.5;exitDx=0;exitDy=0;endArrow=ERone;endFill=0;" edge="1" parent="1" source="86" target="117">
                    <mxGeometry relative="1" as="geometry"/>
                </mxCell>
                <mxCell id="190" style="edgeStyle=none;html=1;exitX=0;exitY=0.5;exitDx=0;exitDy=0;entryX=1;entryY=0.5;entryDx=0;entryDy=0;endArrow=ERone;endFill=0;" edge="1" parent="1" source="86" target="172">
                    <mxGeometry relative="1" as="geometry">
                        <Array as="points">
                            <mxPoint x="520" y="219"/>
                            <mxPoint x="520" y="578"/>
                        </Array>
                    </mxGeometry>
                </mxCell>
            </root>
        </mxGraphModel>
    </diagram>
</mxfile>